# xmcd CD database file
#
# Track frame offsets:
#	150
#	22725
#	42900
#	60225
#	80100
#	103200
#	125100
#	142800
#	161625
#	180525
#	200100
#
# Disc length: 2927 seconds
#
# Revision: 1
# Processed by: cddbd v1.5.1PL2 Copyright (c) Steve Scherf et al.
# Submitted via: freeDBTagger 0.8.2.1
#
DISCID=940b6d0b
DTITLE=今井絵理子 - Single Collection〜Stairway〜
DYEAR=2004
DGENRE=misc
TTITLE0=冷たくしないで
TTITLE1=EVERYDAY, BE WITH YOU
TTITLE2=Red Beat of My Life
TTITLE3=Luv is Magic
TTITLE4=in the Name of Love
TTITLE5=indentity
TTITLE6=Set Me Free!
TTITLE7=Don't stop the music
TTITLE8=Our Relation
TTITLE9=Butterfly
TTITLE10=Can U feel me ？
EXTD=
EXTT0=
EXTT1=
EXTT2=
EXTT3=
EXTT4=
EXTT5=
EXTT6=
EXTT7=
EXTT8=
EXTT9=
EXTT10=
PLAYORDER=
